<svg xmlns="http://www.w3.org/2000/svg" xmlns:xlink="http://www.w3.org/1999/xlink" version="1.1" id="Ebene_1" x="0px" y="0px" width="100.0px" height="100px" viewBox="0 0 2834.65 2834.65" enable-background="new 0 0 2834.65 2834.65" xml:space="preserve">
<g>
	<path d="M1417.323,2784.646c-184.609,0-363.67-36.145-532.209-107.431c-81.008-34.264-159.146-76.675-232.24-126.057   c-72.412-48.922-140.508-105.105-202.395-166.992s-118.071-129.981-166.992-202.395c-49.381-73.095-91.793-151.231-126.057-232.24   C86.145,1780.993,50,1601.933,50,1417.323s36.145-363.67,107.431-532.209c34.264-81.008,76.676-159.146,126.057-232.24   c48.921-72.412,105.105-140.508,166.992-202.395s129.982-118.071,202.395-166.992c73.095-49.381,151.232-91.793,232.24-126.057   C1053.653,86.145,1232.714,50,1417.323,50s363.67,36.145,532.208,107.431c81.009,34.264,159.146,76.676,232.24,126.057   c72.413,48.921,140.508,105.105,202.395,166.992s118.07,129.982,166.992,202.395c49.382,73.095,91.793,151.232,126.057,232.24   c71.286,168.539,107.431,347.6,107.431,532.209s-36.145,363.67-107.431,532.208c-34.264,81.009-76.675,159.146-126.057,232.24   c-48.922,72.413-105.105,140.508-166.992,202.395s-129.981,118.07-202.395,166.992c-73.095,49.382-151.231,91.793-232.24,126.057   C1780.993,2748.501,1601.933,2784.646,1417.323,2784.646z M1246.869,2390.047h340.908v-802.27h802.27V1246.87h-802.27V444.6   h-340.908v802.27h-802.27v340.908h802.27V2390.047z"/>
	<path d="M1417.323,100c89.444,0,178.803,9.004,265.593,26.765c84.533,17.298,167.682,43.109,247.138,76.716   c78.035,33.006,153.308,73.864,223.728,121.438c69.775,47.14,135.394,101.28,195.029,160.916   c59.637,59.637,113.777,125.254,160.916,195.03c47.574,70.42,88.432,145.692,121.438,223.728   c33.606,79.455,59.418,162.604,76.716,247.138c17.76,86.791,26.765,176.149,26.765,265.593c0,89.444-9.005,178.803-26.765,265.593   c-17.298,84.533-43.108,167.682-76.716,247.138c-33.007,78.035-73.864,153.308-121.438,223.728   c-47.139,69.775-101.279,135.394-160.916,195.029c-59.636,59.637-125.254,113.777-195.029,160.916   c-70.42,47.574-145.692,88.432-223.728,121.438c-79.456,33.607-162.604,59.418-247.138,76.716   c-86.79,17.76-176.148,26.765-265.593,26.765c-89.444,0-178.802-9.005-265.593-26.765   c-84.534-17.298-167.683-43.109-247.138-76.716c-78.036-33.007-153.308-73.864-223.728-121.438   c-69.775-47.139-135.393-101.279-195.03-160.916c-59.636-59.636-113.776-125.254-160.916-195.029   c-47.574-70.42-88.432-145.692-121.438-223.728c-33.606-79.456-59.417-162.604-76.716-247.138   c-17.76-86.79-26.765-176.148-26.765-265.593c0-89.444,9.004-178.802,26.765-265.593c17.298-84.533,43.109-167.683,76.716-247.138   c33.006-78.036,73.864-153.308,121.438-223.727c47.14-69.776,101.28-135.394,160.917-195.03s125.254-113.776,195.03-160.917   c70.419-47.574,145.691-88.432,223.727-121.438c79.456-33.606,162.605-59.417,247.138-76.716   C1238.521,109.004,1327.879,100,1417.323,100 M1196.869,1196.87h-702.27h-100v100v240.907v100h100h702.27v702.27v100h100h240.908   h100v-100v-702.27h702.27h100v-100V1296.87v-100h-100h-702.27V494.6v-100h-100h-240.908h-100v100V1196.87 M1417.323,0   C634.557,0,0,634.557,0,1417.323c0,782.766,634.557,1417.322,1417.323,1417.322c782.766,0,1417.322-634.557,1417.322-1417.322   C2834.646,634.557,2200.089,0,1417.323,0L1417.323,0z M494.599,1537.777V1296.87h802.27V494.6h240.908v802.271h802.27v240.907   h-802.27v802.27h-240.908v-802.27H494.599L494.599,1537.777z"/>
</g>
</svg>